<svg xmlns="http://www.w3.org/2000/svg" viewBox="0 0 512 512" width="512" height="512">
  <circle cx="256" cy="256" r="204.8" fill="none" stroke="#f59e0b" stroke-width="6.144" opacity="0.6"/>
  <circle cx="256" cy="256" r="143.36" fill="none" stroke="#f59e0b" stroke-width="3.584" opacity="0.35"/>
  <line x1="460.8" y1="256" x2="430.08" y2="256" stroke="#f59e0b" stroke-width="7.168" opacity="0.75"/>
  <line x1="453.822" y1="309.006" x2="437.996" y2="304.766" stroke="#f59e0b" stroke-width="4.096" opacity="0.4"/>
  <line x1="433.362" y1="358.4" x2="419.173" y2="350.208" stroke="#f59e0b" stroke-width="4.096" opacity="0.4"/>
  <line x1="400.815" y1="400.815" x2="389.23" y2="389.23" stroke="#f59e0b" stroke-width="4.096" opacity="0.4"/>
  <line x1="358.4" y1="433.362" x2="350.208" y2="419.173" stroke="#f59e0b" stroke-width="4.096" opacity="0.4"/>
  <line x1="309.006" y1="453.822" x2="304.766" y2="437.996" stroke="#f59e0b" stroke-width="4.096" opacity="0.4"/>
  <line x1="256" y1="460.8" x2="256" y2="430.08" stroke="#f59e0b" stroke-width="7.168" opacity="0.75"/>
  <line x1="202.994" y1="453.822" x2="207.234" y2="437.996" stroke="#f59e0b" stroke-width="4.096" opacity="0.4"/>
  <line x1="153.6" y1="433.362" x2="161.792" y2="419.173" stroke="#f59e0b" stroke-width="4.096" opacity="0.4"/>
  <line x1="111.185" y1="400.815" x2="122.77" y2="389.23" stroke="#f59e0b" stroke-width="4.096" opacity="0.4"/>
  <line x1="78.638" y1="358.4" x2="92.827" y2="350.208" stroke="#f59e0b" stroke-width="4.096" opacity="0.4"/>
  <line x1="58.178" y1="309.006" x2="74.004" y2="304.766" stroke="#f59e0b" stroke-width="4.096" opacity="0.4"/>
  <line x1="51.2" y1="256" x2="81.92" y2="256" stroke="#f59e0b" stroke-width="7.168" opacity="0.75"/>
  <line x1="58.178" y1="202.994" x2="74.004" y2="207.234" stroke="#f59e0b" stroke-width="4.096" opacity="0.4"/>
  <line x1="78.638" y1="153.6" x2="92.827" y2="161.792" stroke="#f59e0b" stroke-width="4.096" opacity="0.4"/>
  <line x1="111.185" y1="111.185" x2="122.77" y2="122.77" stroke="#f59e0b" stroke-width="4.096" opacity="0.4"/>
  <line x1="153.6" y1="78.638" x2="161.792" y2="92.827" stroke="#f59e0b" stroke-width="4.096" opacity="0.4"/>
  <line x1="202.994" y1="58.178" x2="207.234" y2="74.004" stroke="#f59e0b" stroke-width="4.096" opacity="0.4"/>
  <line x1="256" y1="51.2" x2="256" y2="81.92" stroke="#f59e0b" stroke-width="7.168" opacity="0.75"/>
  <line x1="309.006" y1="58.178" x2="304.766" y2="74.004" stroke="#f59e0b" stroke-width="4.096" opacity="0.4"/>
  <line x1="358.4" y1="78.638" x2="350.208" y2="92.827" stroke="#f59e0b" stroke-width="4.096" opacity="0.4"/>
  <line x1="400.815" y1="111.185" x2="389.23" y2="122.77" stroke="#f59e0b" stroke-width="4.096" opacity="0.4"/>
  <line x1="433.362" y1="153.6" x2="419.173" y2="161.792" stroke="#f59e0b" stroke-width="4.096" opacity="0.4"/>
  <line x1="453.822" y1="202.994" x2="437.996" y2="207.234" stroke="#f59e0b" stroke-width="4.096" opacity="0.4"/>
  <polygon points="481.28,239.104 492.544,256 481.28,272.896 470.016,256" fill="#f59e0b" opacity="0.5"/>
  <polygon points="256,464.384 267.264,481.28 256,498.176 244.736,481.28" fill="#f59e0b" opacity="0.5"/>
  <polygon points="30.72,239.104 41.984,256 30.72,272.896 19.456,256" fill="#f59e0b" opacity="0.5"/>
  <polygon points="256,13.824 267.264,30.72 256,47.616 244.736,30.72" fill="#f59e0b" opacity="0.5"/>
  <text x="256" y="256" text-anchor="middle" dominant-baseline="central" font-size="174.08" font-weight="700" font-family="Georgia, 'Times New Roman', serif" fill="#f59e0b">P</text>
</svg>
